<?xml version="1.0" standalone="no"?>
<!DOCTYPE svg PUBLIC "-//W3C//DTD SVG 20010904//EN"
 "http://www.w3.org/TR/2001/REC-SVG-20010904/DTD/svg10.dtd">
<svg version="1.0" xmlns="http://www.w3.org/2000/svg"
 width="512.000000pt" height="512.000000pt" viewBox="0 0 512.000000 512.000000"
 preserveAspectRatio="xMidYMid meet">

<g transform="translate(0.000000,512.000000) scale(0.100000,-0.100000)"
fill="#000000" stroke="none">
<path d="M1029 5021 c-108 -34 -184 -104 -237 -218 -26 -56 -27 -66 -30 -245
-2 -104 -7 -188 -12 -188 -38 0 -355 -52 -388 -64 -169 -61 -268 -232 -243
-423 171 -1281 476 -3492 487 -3533 22 -76 68 -145 128 -190 125 -94 183 -97
621 -36 182 26 715 100 1185 166 470 66 878 125 907 131 63 12 158 72 196 122
43 56 78 141 84 202 3 30 9 55 14 55 19 0 124 109 151 157 l30 53 97 -89 c390
-359 511 -466 548 -482 105 -48 213 -30 293 50 85 85 102 200 46 307 -15 30
-170 207 -395 452 l-370 404 24 62 c69 184 74 406 13 596 -39 120 -98 225
-190 331 l-48 57 0 367 0 367 23 -6 c12 -4 47 -14 77 -22 74 -22 274 -30 353
-14 280 54 520 281 594 560 28 102 24 303 -6 400 -67 218 -211 388 -406 481
-123 59 -190 74 -335 73 -129 0 -200 -13 -294 -54 l-45 -19 -35 49 c-47 65
-117 115 -195 140 -62 20 -89 20 -1325 19 -1183 0 -1264 -1 -1317 -18z m2626
-158 c41 -22 84 -63 103 -98 9 -16 4 -25 -33 -57 -102 -90 -188 -237 -226
-387 -30 -118 -24 -292 13 -401 l26 -75 -29 -150 c-35 -183 -36 -206 -5 -242
l24 -27 118 17 c66 9 125 17 132 17 9 0 12 -72 12 -325 l0 -325 -62 31 c-136
69 -263 99 -414 99 -182 0 -346 -48 -491 -142 -355 -232 -505 -655 -372 -1053
86 -257 264 -447 519 -552 197 -82 457 -85 665 -9 l70 25 42 -42 41 -42 -12
-45 c-16 -62 -58 -114 -114 -142 l-47 -23 -1254 -3 -1254 -2 -52 24 c-60 27
-101 75 -120 140 -11 36 -14 370 -16 1838 -2 1665 -1 1796 15 1833 28 65 83
113 156 136 14 4 588 7 1275 6 l1250 -2 40 -22z m739 -133 c112 -28 190 -73
277 -160 129 -128 187 -282 176 -464 -9 -160 -72 -292 -193 -405 -116 -109
-255 -164 -411 -163 -106 0 -168 15 -270 63 -92 44 -106 45 -216 24 -43 -8
-84 -15 -91 -15 -10 0 -7 30 11 122 l24 122 -27 71 c-35 93 -45 267 -20 365
84 326 415 523 740 440z m-3632 -2107 l3 -1588 27 -57 c37 -80 108 -152 187
-191 l66 -32 1272 -5 1273 -5 -24 -50 c-27 -59 -68 -97 -128 -118 -50 -19
-2378 -337 -2458 -337 -91 0 -182 64 -210 147 -6 15 -120 823 -254 1795 -263
1909 -253 1814 -203 1890 45 67 90 87 247 112 80 13 157 24 172 25 l28 1 2
-1587z m2696 152 c153 -32 283 -103 392 -214 283 -287 288 -750 13 -1042 -160
-169 -355 -248 -587 -236 -396 19 -694 317 -713 713 -12 233 66 427 236 587
180 168 428 241 659 192z m962 -1655 c194 -212 357 -396 362 -410 34 -88 -74
-175 -158 -127 -24 13 -774 697 -774 705 0 3 35 38 78 78 43 40 89 88 103 108
13 20 27 35 31 33 3 -1 165 -175 358 -387z"/>
<path d="M2356 4649 l-26 -20 0 -204 0 -204 26 -20 c26 -20 37 -21 436 -21
274 0 416 4 430 11 38 21 48 68 48 237 0 165 -9 215 -40 232 -11 6 -182 10
-433 10 -404 0 -415 -1 -441 -21z m754 -224 l0 -85 -310 0 -310 0 0 85 0 85
310 0 310 0 0 -85z"/>
<path d="M1546 4645 c-124 -44 -207 -174 -192 -299 7 -63 48 -148 88 -181 64
-54 107 -70 193 -70 71 0 86 3 135 31 207 117 199 404 -14 505 -69 33 -144 38
-210 14z m171 -161 c62 -46 68 -138 12 -193 -105 -105 -274 23 -206 156 37 71
125 88 194 37z"/>
<path d="M2383 4023 c-55 -11 -72 -97 -27 -132 26 -20 37 -21 439 -21 402 0
413 1 439 21 34 27 37 86 5 115 -20 18 -43 19 -428 20 -223 1 -416 0 -428 -3z"/>
<path d="M1473 3989 c-174 -29 -299 -127 -339 -266 -21 -72 -16 -213 9 -264
23 -47 81 -105 132 -132 38 -21 55 -22 339 -25 325 -3 349 0 428 54 48 34 94
106 109 172 10 41 10 70 1 130 -29 182 -133 285 -334 326 -83 17 -257 20 -345
5z m360 -169 c117 -37 157 -91 157 -215 0 -74 -1 -78 -33 -110 -44 -44 -71
-47 -357 -43 -211 3 -238 5 -267 22 -45 27 -58 59 -57 136 0 54 6 76 27 113
51 87 191 131 382 120 50 -3 116 -13 148 -23z"/>
<path d="M2356 3719 c-32 -25 -35 -75 -7 -110 l19 -24 425 0 c404 0 426 1 446
19 14 13 21 31 21 55 -1 82 3 81 -468 81 -399 0 -410 -1 -436 -21z"/>
<path d="M2350 3430 c-12 -12 -20 -33 -20 -55 0 -22 8 -43 20 -55 19 -19 33
-20 445 -20 412 0 426 1 445 20 31 31 30 85 -2 113 -19 16 -55 17 -444 17
-411 0 -425 -1 -444 -20z"/>
<path d="M1870 3080 c-12 -12 -20 -33 -20 -55 0 -22 8 -43 20 -55 19 -19 33
-20 208 -20 184 0 189 1 210 23 28 30 29 80 2 107 -19 19 -33 20 -210 20 -177
0 -191 -1 -210 -20z"/>
<path d="M1877 2720 c-35 -28 -38 -87 -6 -116 19 -17 41 -19 197 -22 97 -2
191 -1 209 3 66 12 94 77 54 126 -19 24 -23 24 -223 27 -195 3 -205 2 -231
-18z"/>
<path d="M1140 2420 c-19 -19 -20 -33 -20 -269 0 -230 1 -251 19 -272 19 -24
22 -24 242 -27 244 -4 281 0 310 29 18 18 19 35 19 269 0 237 -1 251 -20 270
-19 19 -33 20 -275 20 -242 0 -256 -1 -275 -20z m420 -270 l0 -140 -145 0
-145 0 0 140 0 140 145 0 145 0 0 -140z"/>
<path d="M1870 2390 c-12 -12 -20 -33 -20 -55 0 -22 8 -43 20 -55 18 -18 33
-20 174 -20 l155 0 20 26 c27 34 27 74 1 102 -20 21 -29 22 -175 22 -142 0
-157 -2 -175 -20z"/>
<path d="M1877 2030 c-35 -28 -38 -87 -6 -116 19 -17 38 -19 176 -19 151 0
155 1 174 24 24 30 24 72 0 102 -18 23 -26 24 -168 27 -139 3 -150 2 -176 -18z"/>
<path d="M1870 1690 c-27 -27 -27 -83 2 -110 20 -19 34 -20 204 -20 168 0 183
1 208 21 33 26 36 79 6 109 -19 19 -33 20 -210 20 -177 0 -191 -1 -210 -20z"/>
<path d="M1877 1330 c-31 -25 -36 -72 -11 -108 15 -22 16 -22 343 -22 305 0
329 1 344 18 21 23 22 81 3 108 -14 18 -31 19 -333 22 -312 3 -320 2 -346 -18z"/>
<path d="M2872 1707 c-37 -39 -30 -84 22 -131 231 -215 611 -218 828 -7 66 65
74 96 33 136 -36 37 -75 33 -130 -15 -99 -85 -218 -126 -344 -117 -99 7 -176
37 -264 103 -80 60 -112 67 -145 31z"/>
</g>
</svg>
